<?xml version="1.0" encoding="utf-8" ?><svg xmlns="http://www.w3.org/2000/svg" xmlns:xlink="http://www.w3.org/1999/xlink" width="462" height="467" viewBox="0 0 462 467"><defs><linearGradient id="gradient_0" gradientUnits="userSpaceOnUse" x1="161.21225" y1="25.631208" x2="284.48633" y2="436.97571"><stop offset="0" stop-color="#08204B"/><stop offset="1" stop-color="#0C5C91"/></linearGradient></defs><path fill="url(#gradient_0)" d="M428.069 319.429C427.189 321.967 424.614 326.267 423.282 328.704C386.973 395.161 321.365 439.665 245.068 442.429C178.551 444.84 117.188 416.214 74.727 365.256C5.8781 281.871 8.04273 156.774 83.0994 77.9558C154.738 2.72695 272.374 -10.2288 357.534 50.0924C365.196 55.52 373.82 61.9383 380.612 68.4192C402.129 87.0284 420.04 113.581 431.431 139.722C453.858 191.184 455.271 252.959 434.312 305.174C432.81 308.915 430.086 316.352 428.069 319.429ZM238.973 348.32C240.505 348.16 242.013 348.024 243.549 347.897C263.562 342.941 282.537 336.836 299.899 325.523C325.901 308.567 345.785 282.758 352.122 252.176C360.624 211.16 349.522 172.457 319.872 142.787C296.391 119.291 273.979 110.271 241.992 103.401C238.775 103.226 236.366 103.241 233.165 103.486C232.1 103.568 228.607 103.956 227.762 103.937C226.579 103.94 220.124 105.869 218.482 106.322C192.792 113.407 170.91 125.923 152.44 144.995C107.409 191.493 110.238 264.857 155.706 309.956C174.042 328.143 197.25 339.798 222.369 345.588C226.941 346.613 234.235 348.032 238.973 348.32Z"/><defs><linearGradient id="gradient_1" gradientUnits="userSpaceOnUse" x1="340.89392" y1="48.945435" x2="290.82278" y2="141.32297"><stop offset="0" stop-color="#004F59"/><stop offset="1" stop-color="#0B7A7C"/></linearGradient></defs><path fill="url(#gradient_1)" d="M187.391 69.9914C191.434 66.4788 198.962 62.7835 203.831 60.5436C226.656 50.0457 251.643 43.1776 276.8 41.9934C280.786 41.8058 284.617 41.1667 288.651 41.2635C292.995 41.3678 297.252 41.7849 301.574 42.1804C318.548 43.5144 335.379 47.0791 350.801 54.4305C359.216 58.4421 366.753 62.1344 374.179 67.7353C374.951 68.3177 375.651 68.5906 376.074 69.6062C377.4 70.9645 377.743 71.1978 379.558 71.2092L379.912 70.814C379.9 69.9521 379.776 69.8616 379.306 69.0792L379.166 68.8512L379.28 68.4526L379.57 68.681L379.859 68.914L380.612 68.4192C402.129 87.0284 420.04 113.581 431.431 139.722C453.858 191.184 455.271 252.959 434.312 305.174C432.81 308.915 430.086 316.352 428.069 319.429L427.83 319.065L427.991 318.743C428.223 318.268 428.139 318.459 428.321 317.941L427.845 317.826C422.667 322.545 419.315 327.322 414.698 332.42C385.008 365.204 341.736 386.054 297.917 390.77C294.937 391.091 284.322 392.698 282.051 391.092C283.337 390.13 289.105 387.095 290.831 386.124C294.201 384.227 297.252 382.171 300.517 380.242C301.994 379.171 304.651 377.385 306.194 376.491C307.143 375.25 318.09 366.84 320.273 364.849C331.267 354.824 340.945 344.078 349.079 331.573C351.038 328.562 354.392 322.688 355.883 319.675C358.438 314.516 368.63 291.52 367.562 286.628C364.553 289.882 361.805 293.45 358.997 296.883C334.728 326.56 298.127 347.48 259.441 349.179C254.644 349.39 248.081 349.426 243.549 347.897C263.562 342.941 282.537 336.836 299.899 325.523C325.901 308.567 345.785 282.758 352.122 252.176C360.624 211.16 349.522 172.457 319.872 142.787C296.391 119.291 273.979 110.271 241.992 103.401C238.775 103.226 236.366 103.241 233.165 103.486C232.1 103.568 228.607 103.956 227.762 103.937C219.474 102.773 214.107 103.437 205.841 104.726C180.375 108.697 156.168 119.922 135.509 135.16C132.055 137.707 127.872 141.395 124.365 143.551C124.148 140.79 127.186 136.441 128.511 134.071C136.08 120.526 144.478 107.824 154.848 96.2365C156.784 94.073 167.855 83.2146 168.471 81.8087C169.186 81.513 173.379 78.26 174.436 77.5513C178.67 74.712 182.704 72.0568 187.391 69.9914Z"/><defs><linearGradient id="gradient_2" gradientUnits="userSpaceOnUse" x1="323.80981" y1="227.04897" x2="446.42578" y2="268.12241"><stop offset="0" stop-color="#0D6B75"/><stop offset="1" stop-color="#06918B"/></linearGradient></defs><path fill="url(#gradient_2)" d="M380.612 68.4192C402.129 87.0284 420.04 113.581 431.431 139.722C453.858 191.184 455.271 252.959 434.312 305.174C432.81 308.915 430.086 316.352 428.069 319.429L427.83 319.065L427.991 318.743C428.223 318.268 428.139 318.459 428.321 317.941L427.845 317.826C422.667 322.545 419.315 327.322 414.698 332.42C385.008 365.204 341.736 386.054 297.917 390.77C294.937 391.091 284.322 392.698 282.051 391.092C283.337 390.13 289.105 387.095 290.831 386.124C294.201 384.227 297.252 382.171 300.517 380.242C301.994 379.171 304.651 377.385 306.194 376.491C307.143 375.25 318.09 366.84 320.273 364.849C331.267 354.824 340.945 344.078 349.079 331.573C351.038 328.562 354.392 322.688 355.883 319.675C358.438 314.516 368.63 291.52 367.562 286.628L369.759 281.501C374.515 278.743 385.299 254.996 387.394 249.625C390.655 241.263 402.602 207.823 399.855 201.357C401.607 200.025 401.265 192.775 401.517 189.787C404.665 152.399 395.851 114.483 380.601 80.4635C379.084 77.0813 376.841 73.09 375.794 70.1439L376.074 69.6062C377.4 70.9645 377.743 71.1978 379.558 71.2092L379.912 70.814C379.9 69.9521 379.776 69.8616 379.306 69.0792L379.166 68.8512L379.28 68.4526L379.57 68.681L379.859 68.914L380.612 68.4192Z"/><path fill="#0E747F" d="M300.517 380.242C301.994 379.171 304.651 377.385 306.194 376.491C305.87 377.915 301.77 380.218 300.517 380.242Z"/><path fill="#A8CDCA" d="M241.992 103.401C243.751 102.094 246.915 102.516 249.144 102.464C257.885 102.258 266.544 102.734 275.194 104.036C282.676 105.153 289.466 106.658 296.739 108.64C300.129 109.565 308.184 112.823 310.973 113.071C313.569 114.522 316.175 116.24 318.421 118.198C318.845 117.78 319.144 117.306 319.705 117.354C321.863 117.538 324.804 119.337 326.669 120.343C340.308 127.705 352.646 137.319 363.518 148.344C379.2 164.246 390.271 181.304 399.855 201.357C402.602 207.823 390.655 241.263 387.394 249.625C385.299 254.996 374.515 278.743 369.759 281.501L367.562 286.628C364.553 289.882 361.805 293.45 358.997 296.883C334.728 326.56 298.127 347.48 259.441 349.179C254.644 349.39 248.081 349.426 243.549 347.897C263.562 342.941 282.537 336.836 299.899 325.523C325.901 308.567 345.785 282.758 352.122 252.176C360.624 211.16 349.522 172.457 319.872 142.787C296.391 119.291 273.979 110.271 241.992 103.401Z"/><path fill="#45A78F" d="M318.421 118.198C318.845 117.78 319.144 117.306 319.705 117.354C321.863 117.538 324.804 119.337 326.669 120.343C340.308 127.705 352.646 137.319 363.518 148.344C379.2 164.246 390.271 181.304 399.855 201.357C402.602 207.823 390.655 241.263 387.394 249.625C385.299 254.996 374.515 278.743 369.759 281.501C369.724 279.565 370.841 272.625 371.135 270.369C371.989 263.767 372.85 257.038 372.956 250.375C373.525 214.674 365.671 177.906 344.966 148.284C342.825 145.221 340.457 142.101 338.148 139.163C332.197 131.591 325.008 125.201 318.421 118.198Z"/><path fill="#45A78F" d="M187.391 69.9914C189.345 70.6308 198.961 69.9998 201.616 70.028C239.367 70.4282 277.238 85.1042 306.552 108.665C307.957 109.796 310.159 111.547 310.973 113.071C308.184 112.823 300.129 109.565 296.739 108.64C289.466 106.658 282.676 105.153 275.194 104.036C266.544 102.734 257.885 102.258 249.144 102.464C246.915 102.516 243.751 102.094 241.992 103.401C238.775 103.226 236.366 103.241 233.165 103.486C232.1 103.568 228.607 103.956 227.762 103.937C219.474 102.773 214.107 103.437 205.841 104.726C180.375 108.697 156.168 119.922 135.509 135.16C132.055 137.707 127.872 141.395 124.365 143.551C124.148 140.79 127.186 136.441 128.511 134.071C136.08 120.526 144.478 107.824 154.848 96.2365C156.784 94.073 167.855 83.2146 168.471 81.8087C169.186 81.513 173.379 78.26 174.436 77.5513C178.67 74.712 182.704 72.0568 187.391 69.9914Z"/><path fill="#0E747F" d="M124.365 143.551C127.872 141.395 132.055 137.707 135.509 135.16C156.168 119.922 180.375 108.697 205.841 104.726C214.107 103.437 219.474 102.773 227.762 103.937C226.579 103.94 220.124 105.869 218.482 106.322C192.792 113.407 170.91 125.923 152.44 144.995C107.409 191.493 110.238 264.857 155.706 309.956C174.042 328.143 197.25 339.798 222.369 345.588C226.941 346.613 234.235 348.032 238.973 348.32C240.505 348.16 242.013 348.024 243.549 347.897C248.081 349.426 254.644 349.39 259.441 349.179C298.127 347.48 334.728 326.56 358.997 296.883C361.805 293.45 364.553 289.882 367.562 286.628C368.63 291.52 358.438 314.516 355.883 319.675C354.392 322.688 351.038 328.562 349.079 331.573C340.945 344.078 331.267 354.824 320.273 364.849C318.09 366.84 307.143 375.25 306.194 376.491C304.651 377.385 301.994 379.171 300.517 380.242C297.252 382.171 294.201 384.227 290.831 386.124C289.105 387.095 283.337 390.13 282.051 391.092L279.6 391.828C275.893 395.536 258.804 401.705 253.281 403.598C238.625 408.622 222.588 411.805 207.13 412.869C202.34 413.131 197.191 413.943 192.416 413.845C166.577 413.307 140.738 409.233 117.528 397.296C112.182 394.547 108.831 394.931 105.237 389.223C103.049 385.749 100.886 382.194 98.7646 378.666C82.9145 352.303 75.1746 321.568 73.5188 291.015C73.3051 287.072 73.5271 282.996 73.4799 279.035C73.4302 274.872 73.4579 270.679 73.5002 266.516C74.1589 255.995 75.4789 245.431 77.4449 235.078C78.6523 228.915 80.8568 217.902 83.6338 212.315L84.9096 206.335C87.0274 202.54 89.8504 194.569 91.8205 190.203C96.5512 179.722 112.111 153.782 121.431 147.481L124.365 143.551Z"/><path fill="#A8CDCA" d="M124.365 143.551C127.872 141.395 132.055 137.707 135.509 135.16C156.168 119.922 180.375 108.697 205.841 104.726C214.107 103.437 219.474 102.773 227.762 103.937C226.579 103.94 220.124 105.869 218.482 106.322C192.792 113.407 170.91 125.923 152.44 144.995C107.409 191.493 110.238 264.857 155.706 309.956C174.042 328.143 197.25 339.798 222.369 345.588C226.941 346.613 234.235 348.032 238.973 348.32C238.204 348.555 237.279 348.865 236.497 349.023C202.411 355.911 165.379 345.133 138.965 322.869C136.401 320.708 133.216 317.385 130.413 315.801C128.324 312.905 125.707 309.745 123.492 306.746C120.922 304.557 116.787 299.168 114.734 296.396C101.656 278.735 91.9994 258.285 87.1685 236.823C86.1554 232.131 85.349 227.391 84.791 222.623C84.389 219.187 84.3188 215.714 83.6338 212.315L84.9096 206.335C87.0274 202.54 89.8504 194.569 91.8205 190.203C96.5512 179.722 112.111 153.782 121.431 147.481L124.365 143.551Z"/><path fill="#8694B3" d="M84.9096 206.335C87.0274 202.54 89.8504 194.569 91.8205 190.203C96.5512 179.722 112.111 153.782 121.431 147.481C121.543 149.293 119.046 155.712 118.34 157.701C103.253 200.223 101.941 247.626 117.357 290.258C118.721 294.03 123.285 303.279 123.492 306.746C120.922 304.557 116.787 299.168 114.734 296.396C101.656 278.735 91.9994 258.285 87.1685 236.823C86.1554 232.131 85.349 227.391 84.791 222.623C84.389 219.187 84.3188 215.714 83.6338 212.315L84.9096 206.335Z"/><path fill="#45A78F" d="M367.562 286.628C368.63 291.52 358.438 314.516 355.883 319.675C354.392 322.688 351.038 328.562 349.079 331.573C340.945 344.078 331.267 354.824 320.273 364.849C318.09 366.84 307.143 375.25 306.194 376.491C304.651 377.385 301.994 379.171 300.517 380.242C297.252 382.171 294.201 384.227 290.831 386.124C289.105 387.095 283.337 390.13 282.051 391.092L279.6 391.828C278.316 391.361 276.085 391.428 274.705 391.466C221.102 392.938 168.533 367.55 136.032 324.943C134.305 322.679 130.787 318.631 130.413 315.801C133.216 317.385 136.401 320.708 138.965 322.869C165.379 345.133 202.411 355.911 236.497 349.023C237.279 348.865 238.204 348.555 238.973 348.32C240.505 348.16 242.013 348.024 243.549 347.897C248.081 349.426 254.644 349.39 259.441 349.179C298.127 347.48 334.728 326.56 358.997 296.883C361.805 293.45 364.553 289.882 367.562 286.628Z"/><path fill="#0E747F" d="M84.9096 206.335C83.479 203.657 85.9598 192.612 86.7309 189.328C88.6773 181.039 90.903 172.467 94.0282 164.532C95.6358 160.45 98.1163 156.714 100.249 152.893C114.394 127.18 134.509 104.532 158.466 87.5705C160.899 85.8478 165.649 82.1843 168.471 81.8087C167.855 83.2146 156.784 94.073 154.848 96.2365C144.478 107.824 136.08 120.526 128.511 134.071C127.186 136.441 124.148 140.79 124.365 143.551L121.431 147.481C112.111 153.782 96.5512 179.722 91.8205 190.203C89.8504 194.569 87.0274 202.54 84.9096 206.335Z"/></svg>